<?xml version="1.0" encoding="UTF-8"?>
<!DOCTYPE svg PUBLIC "-//W3C//DTD SVG 1.1//EN" "http://www.w3.org/Graphics/SVG/1.1/DTD/svg11.dtd">
<!-- Creator: CorelDRAW X7 -->
<svg xmlns="http://www.w3.org/2000/svg" xml:space="preserve" width="1.27673in" height="1.27673in" version="1.1" style="shape-rendering:geometricPrecision; text-rendering:geometricPrecision; image-rendering:optimizeQuality; fill-rule:evenodd; clip-rule:evenodd"
viewBox="0 0 336 336"
 xmlns:xlink="http://www.w3.org/1999/xlink">
 <defs>
  <style type="text/css">
   <![CDATA[
    .fil1 {fill:#FEFEFE}
    .fil0 {fill:#0987A0}
   ]]>
  </style>
 </defs>
 <g id="Layer_x0020_1">
  <metadata id="CorelCorpID_0Corel-Layer"/>
  <g id="_2541964965472">
   <circle class="fil0" cx="168" cy="168" r="168"/>
   <g>
    <path class="fil1" d="M182 82c3,2 4,6 8,5 16,-2 29,-7 39,5 5,4 6,10 10,15 5,7 6,7 16,9 14,3 25,10 30,21 8,19 -2,42 -22,49 -8,3 -14,2 -23,3 -7,0 -14,2 -18,6 -11,9 -9,25 -31,32 -2,1 -9,2 -10,3 1,4 17,-1 19,-2 16,-7 18,-19 24,-25 5,-5 11,-5 20,-5 19,0 26,-1 39,-10 8,-7 15,-18 17,-33 4,-30 -18,-49 -43,-54 -7,-1 -5,-4 -11,-13 -6,-11 -16,-19 -30,-20 -9,-1 -15,1 -23,1 -4,-5 -14,-10 -22,-12 -30,-7 -36,13 -55,22 -12,0 -28,7 -36,12 -14,9 -25,26 -27,44 -1,6 0,18 -2,22 -4,4 -7,6 -10,13 -18,43 20,84 58,75 5,-1 14,-5 19,-2 5,3 8,8 9,16 0,9 -3,19 -2,21 0,1 -1,0 0,1 3,-1 5,-15 6,-18 1,-12 -2,-26 -17,-28 -6,-1 -13,2 -20,2 -25,1 -47,-21 -45,-47 2,-20 12,-20 16,-30 5,-10 -2,-19 8,-38 9,-16 24,-24 43,-26 27,-3 39,-43 66,-14z"/>
    <path class="fil1" d="M177 117c1,2 1,4 4,3 9,-1 17,-4 23,3 3,3 4,6 6,9 3,4 4,4 9,6 9,1 15,5 18,12 5,11 -1,24 -13,29 -4,2 -8,1 -13,1 -5,1 -8,2 -11,4 -7,5 -5,15 -18,19 -1,1 -6,1 -6,1 0,3 10,0 11,-1 9,-4 10,-11 14,-14 3,-3 7,-3 12,-3 11,0 15,-1 23,-6 5,-4 9,-11 10,-19 2,-18 -11,-30 -26,-32 -3,-1 -2,-3 -6,-8 -3,-7 -10,-11 -17,-12 -6,-1 -10,1 -14,1 -2,-3 -8,-6 -13,-7 -18,-5 -21,7 -33,13 -6,-1 -16,4 -21,7 -8,5 -15,15 -16,26 0,3 0,10 -1,12 -3,3 -4,4 -6,8 -11,25 12,50 34,45 3,-1 9,-3 12,-2 3,2 4,5 5,10 0,5 -2,11 -1,12 0,1 -1,0 0,1 2,-1 3,-9 3,-11 1,-7 -1,-15 -10,-17 -4,0 -8,2 -12,2 -14,1 -27,-13 -26,-28 1,-12 7,-12 9,-18 3,-6 -1,-11 5,-22 5,-9 14,-14 25,-15 17,-2 23,-26 40,-9z"/>
   </g>
  </g>
 </g>
</svg>
